<svg width="307" height="84" fill="none" xmlns="http://www.w3.org/2000/svg"><path d="M68.909 42.5c3.7 2.6 7.4 5.2 11.2 7.9 6.5 4.6 13.1 9.2 19.6 13.8 4.5 3.2 11.2 2.8 15.7-1 4.4-3.7 5.9-8.5 4.4-13.9-1.5-5.5-5.3-8.7-10.9-9.8-3.5-.7-6.7.1-9.7 2.2-3.6 2.6-7.3 5.1-11 7.7-.7.5-1.2.5-1.9 0-4.3-3.1-8.6-6.1-12.9-9.2-.8-.6-.8-.6 0-1.2 5.2-3.8 10.5-7.6 15.9-11.3 6.2-4.3 13-6 20.5-5.3 12.7 1.2 23.3 10.5 26.6 23 4.3 16.2-6.2 33.3-22.4 37.1-8.9 2.1-17.3.7-24.8-4.6-11.6-8.2-23.1-16.4-34.6-24.6l-.3-.3c4.9-3.4 9.7-6.9 14.6-10.5z" fill="#23386D"/><path d="M30.609 66.5c3.1.1 5.8-1.1 8.3-2.9 3.4-2.5 6.9-4.8 10.3-7.2.7-.5 1.3-.5 2 0 4.2 3 8.4 6 12.7 9.1.3.2.6.5 1 .7-2.4 1.7-4.7 3.4-7 5-3.6 2.5-7.1 5.2-10.8 7.6-3.3 2.1-6.8 3.5-10.7 4.2h-.4c-.9-2.9-1.9-5.7-2.8-8.6-.8-2.6-1.7-5.3-2.6-7.9z" fill="#CE7314"/><path d="M17.109 25.5c2.8-1.5 5.9-2.3 9-2.8 7.7-1.2 14.9.4 21.4 4.7.1.1.3.2.4.3-.1.2-.1.3-.2.5-1.2 3.7-2.4 7.5-3.7 11.2-.6 1.8-1 3.7-1.7 5.4-1.3-.9-2.5-1.7-3.8-2.7-4.6-3.6-9.5-3.5-14.6-.8l-.6.3c-2.1-5.4-4.2-10.7-6.2-16.1z" fill="#604A97"/><path d="M42.2 44.4c.7-1.8 1.1-3.6 1.7-5.4.3-.1.3-.4.4-.6 1.2-3.6 2.4-7.3 3.7-10.9 1.7 1.2 3.4 2.3 5 3.5 5.1 3.7 10.6 7.6 15.7 11.3-.1-.1.1.1 0 0-4.8 3.5-9.6 7-14.5 10.5l-12-8.4z" fill="#DA4747"/><path d="M18.509 46.9c-1.6 3.4-1.6 6.9-.5 10.4-2.8.8-5.7 1.7-8.5 2.5-.6-.1-1.1.2-1.6.3-2.1.6-4.3 1.1-6.4 1.9-2.2-7.2-2.1-14.4 1-21.4.4.1.7.2 1.1.4 1.8.7 3.7 1.4 5.5 2.2 3.2 1.3 6.3 2.5 9.4 3.7z" fill="#47B8B2"/><path d="M9.509 59.9c2.8-.8 5.7-1.7 8.5-2.5 1.2 3.6 3.5 6.1 6.9 7.7-.1.1-.1.2-.2.4-3.4 4.4-6.9 8.9-10.3 13.3-3.9-2.4-7-5.6-9.4-9.4-1.4-2.2-2.6-4.5-3.3-7.1 2.5-.8 5.2-1.5 7.8-2.4z" fill="#CE0477"/><path d="M14.309 78.7c3.4-4.4 6.9-8.9 10.3-13.3.1-.1.1-.2.2-.4 1.9.8 3.8 1.3 5.8 1.4.9 2.6 1.7 5.3 2.6 7.9.9 2.9 1.9 5.7 2.8 8.6-2.6.6-5.2.6-7.7.5-4.8-.3-9.3-1.8-13.4-4.4-.2 0-.4-.2-.6-.3z" fill="#CFBD04"/><path d="M18.509 46.9c-3.1-1.2-6.3-2.5-9.4-3.7-1.8-.7-3.7-1.4-5.5-2.2-.4-.1-.7-.2-1.1-.4 3-6.4 7.5-11.5 13.8-14.9.2-.1.5-.2.8-.3 2.1 5.4 4.2 10.7 6.2 16.1-1.4 1.1-2.7 2.3-3.7 3.7-.4.7-.7 1.2-1.1 1.7zM38.709 8.3c0 4.6-3.7 8.3-8.3 8.3-4.6 0-8.3-3.7-8.3-8.3 0-4.6 3.7-8.3 8.3-8.3 4.6 0 8.3 3.7 8.3 8.3z" fill="#49A6C9"/><path d="M95.609 8.3c0-4.6 3.7-8.3 8.3-8.3 4.6 0 8.3 3.8 8.3 8.4 0 4.5-3.7 8.2-8.3 8.3-4.6-.1-8.3-3.8-8.3-8.4z" fill="#22396E"/><path d="M48.209 27.8c-1.2 3.6-2.4 7.3-3.7 10.9-.1.2-.1.5-.4.6 1.2-3.7 2.4-7.5 3.7-11.2.1-.2.1-.3.2-.5 0 .1.1.2.2.2z" fill="#35386D"/><path d="M9.509 59.9c-2.6.9-5.2 1.6-7.9 2.4l-.1-.1c2.1-.8 4.2-1.3 6.4-1.9.5-.2 1-.5 1.6-.4z" fill="#3E3978"/><path d="M178.909 32.2c0-4.3-.1-8.1-.3-11.1h10l.5 4.1h.2c1.2-1.6 4-4.8 9.7-4.8 4.2 0 7.4 1.9 8.8 5.2h.1c1.3-1.7 2.8-3 4.5-3.9 1.7-.9 3.6-1.3 5.8-1.3 7 0 11.1 5.1 11.1 14.2v19.2h-11.6V36.4c0-4-1.2-6.4-3.8-6.4-1.9 0-3.1 1.2-3.6 2.8-.2.7-.3 1.7-.3 2.4v18.6h-11.7V36.1c0-3.6-1.1-6-3.8-6-2.1 0-3.2 1.6-3.6 2.7-.3.8-.3 1.6-.3 2.4v18.7h-11.7V32.2zM250.509 53.7l-.6-2.9h-.2c-2.3 2.6-5.5 3.6-9 3.6-6.7 0-10.8-4.8-10.8-10.2 0-8.8 7.9-12.7 19-12.7v-.3c0-1.3-1-2.8-5.4-2.8-3.4 0-7.1 1.2-9.2 2.4l-2.1-7.6c2.1-1.1 6.7-3 13.5-3 11.2 0 15.1 6.3 15.1 14.4v11c0 3.3.2 6.3.5 7.9h-10.8v.2zm-1.4-14.9c-4.9 0-7.6 1.4-7.6 4.2 0 2.1 1.4 3.2 3.4 3.2 1.7 0 3.5-1.2 4.1-3 .1-.5.1-1.1.1-1.7v-2.7zM263.109 32.1c0-5.2-.1-8.3-.3-11h10.2l.4 5.9h.3c1.7-4.9 5.9-6.6 8.7-6.6 1.1 0 1.5 0 2.4.2l.3 10.9c-.7-.1-2-.1-3.3-.1-3.5 0-5.9 1.5-6.5 4.1-.1.6-.2 1.3-.2 2v16.1h-12V32.1z" fill="#23386D"/><path d="M299.309 11.8v9.3h6.8v8.8h-6.8v9.4c0 3.9.9 5.5 3.8 5.5 1.2 0 2.2-.1 2.8-.2v9.1c-1.4.5-4 .9-7.1.9-3.5 0-6.5-1.2-8.2-3-2-2-3-5.2-3-10.2v-9.9h-4V20.4h4v-6l11.7-2.6zM153.009 44.5c1.9 1.2 6.2 2.5 9.2 2.5 2.6 0 3.6-.6 3.6-1.8 0-1.2-.8-1.8-4.3-2.9-7.3-2.3-9.8-6.3-9.7-10.1 0-6.6 5.6-11.4 14.3-11.4 4.1 0 7.8.9 9.9 1.9l-1.9 8.3c-1.6-.8-4.7-1.8-7.3-1.8-2.1 0-3.3.6-3.3 1.9 0 1.1 1 1.8 5 3.1 6.5 2.1 9 5.5 9.1 10.3 0 6.3-4.9 11.1-15.1 11.1-4.6 0-8.7-1-11.3-2.3l1.8-8.8z" fill="#23386D"/><path d="M157.395 78.1c-1.243 0-2.352-.289-3.327-.864-.955-.595-1.711-1.43-2.265-2.505-.535-1.093-.803-2.38-.803-3.857 0-1.439.268-2.696.803-3.77.554-1.075 1.31-1.91 2.265-2.505.956-.614 2.046-.921 3.27-.921 1.242 0 2.294.317 3.154.95a5.899 5.899 0 0 1 2.007 2.418c.459.978.689 2.015.689 3.109v.575h-10.439c-.038 1.727.364 3.128 1.205 4.203.86 1.055 2.017 1.583 3.47 1.583 1.07 0 1.969-.269 2.695-.806.727-.556 1.319-1.372 1.778-2.447l1.434.835c-1.224 2.668-3.202 4.001-5.936 4.001zm-4.531-8.866h8.603a5.032 5.032 0 0 0-.717-2.044 4.207 4.207 0 0 0-1.434-1.468c-.573-.365-1.233-.547-1.978-.547-1.167 0-2.151.364-2.954 1.094-.784.71-1.291 1.698-1.52 2.965zM171.544 78.1c-1.223 0-2.313-.298-3.269-.893-.956-.614-1.711-1.459-2.265-2.533-.555-1.094-.832-2.36-.832-3.8 0-1.439.277-2.696.832-3.77.554-1.075 1.309-1.91 2.265-2.505.956-.614 2.046-.921 3.269-.921 1.033 0 1.95.25 2.753.748a5.318 5.318 0 0 1 1.922 1.987V57h1.749v20.782h-1.606l-.029-2.532a5.796 5.796 0 0 1-1.978 2.1c-.822.5-1.759.75-2.811.75zm.058-1.642c.898 0 1.692-.23 2.38-.69.707-.461 1.262-1.104 1.663-1.929.402-.844.602-1.833.602-2.965s-.2-2.11-.602-2.936c-.401-.825-.956-1.468-1.663-1.928-.688-.461-1.482-.691-2.38-.691-.899 0-1.702.23-2.409.69-.708.461-1.262 1.104-1.663 1.93-.402.824-.603 1.803-.603 2.935 0 1.132.201 2.12.603 2.965.401.825.955 1.468 1.663 1.929.707.46 1.51.69 2.409.69zM186.036 78.1c-1.453 0-2.628-.471-3.527-1.411-.898-.94-1.348-2.284-1.348-4.03v-8.664h1.721v8.434c0 1.343.315 2.35.946 3.022.65.672 1.482 1.007 2.495 1.007 1.166 0 2.113-.364 2.839-1.093.727-.73 1.09-1.622 1.09-2.677v-8.693h1.749v13.759h-1.634l-.058-1.929c-.401.633-.975 1.17-1.72 1.612-.746.442-1.597.662-2.553.662zM202.578 83.77V63.995h1.606l.057 2.504c.497-.902 1.157-1.602 1.979-2.101.822-.5 1.759-.749 2.81-.749 1.224 0 2.313.307 3.269.921.956.595 1.702 1.44 2.237 2.533.554 1.075.832 2.332.832 3.771 0 1.44-.278 2.706-.832 3.8-.535 1.074-1.281 1.919-2.237 2.533-.956.595-2.045.892-3.269.892-1.032 0-1.95-.25-2.753-.748a5.781 5.781 0 0 1-1.95-2.015v8.434h-1.749zm6.423-7.312c.899 0 1.692-.23 2.381-.69.707-.461 1.261-1.104 1.663-1.929.401-.844.602-1.833.602-2.965s-.201-2.11-.602-2.936c-.402-.844-.956-1.497-1.663-1.957-.689-.46-1.482-.691-2.381-.691-1.357 0-2.475.508-3.355 1.526-.879.997-1.319 2.35-1.319 4.058 0 1.689.44 3.042 1.319 4.059.88 1.017 1.998 1.525 3.355 1.525zM218.016 77.782V57h1.749v20.782h-1.749zM226.847 78.042c-1.338.019-2.428-.288-3.269-.921-.822-.634-1.233-1.555-1.233-2.764 0-.921.306-1.727.918-2.418.631-.69 1.424-1.228 2.38-1.612a7.813 7.813 0 0 1 3.011-.604c1.415 0 2.533.336 3.355 1.007v-2.36c0-1.286-.267-2.12-.803-2.504-.535-.403-1.395-.605-2.581-.605-.764 0-1.615.144-2.552.432-.937.269-1.73.614-2.38 1.036l-.832-1.382c.746-.48 1.644-.882 2.696-1.208 1.071-.327 2.093-.49 3.068-.49 1.74 0 3.021.336 3.843 1.008.822.671 1.233 1.91 1.233 3.713v7.628c0 .364.096.576.287.633.21.038.659-.01 1.348-.144v1.238c-.191.077-.45.144-.775.201-.325.077-.63.116-.917.116-.65 0-1.071-.135-1.262-.403-.191-.27-.306-.778-.344-1.526-.593.653-1.377 1.132-2.352 1.44a10.14 10.14 0 0 1-2.839.489zm.086-1.584a8.375 8.375 0 0 0 2.553-.431c.803-.269 1.433-.653 1.892-1.152.478-.518.698-1.141.66-1.87-.057-.596-.382-1.037-.975-1.325-.593-.307-1.357-.45-2.294-.432-.784 0-1.539.135-2.266.403-.726.269-1.319.643-1.778 1.123-.439.46-.659.998-.659 1.612 0 .71.267 1.238.803 1.583.535.326 1.223.49 2.064.49zM237.791 84a6.77 6.77 0 0 1-1.061-.086 5.599 5.599 0 0 1-.918-.173V82.1c.268.076.564.133.889.172.345.058.67.086.975.086.708 0 1.234-.163 1.578-.49.344-.306.669-.853.975-1.64l.917-2.447-5.391-13.787h1.807l4.387 11.6 4.216-11.6H248l-6.223 16.781c-.401 1.113-.908 1.929-1.52 2.447-.611.518-1.434.777-2.466.777z" fill="#CE0477"/></svg>